<?xml version="1.0" encoding="UTF-8"?>
<svg version="1.1" xmlns="http://www.w3.org/2000/svg" width="1536" height="960">
<path d="M0 0 C506.88 0 1013.76 0 1536 0 C1536 316.8 1536 633.6 1536 960 C1029.12 960 522.24 960 0 960 C0 643.2 0 326.4 0 0 Z " fill="#FFFFFF" transform="translate(0,0)"/>
<path d="M0 0 C44.72524516 -1.4580357 85.24186084 12.91918031 118.19726562 43.20703125 C125.98022487 50.74629706 132.16312569 59.2024981 137.82617188 68.4140625 C138.16052246 68.95232666 138.49487305 69.49059082 138.83935547 70.04516602 C139.88085938 72.078125 139.88085938 72.078125 140.78564453 75.03100586 C142.88356501 81.03771407 142.88356501 81.03771407 147.67254639 84.94018555 C152.42483492 86.414952 157.32758286 87.00906921 162.25811768 87.57449341 C165.97417818 88.00203146 169.66948551 88.54881632 173.37020874 89.09141541 C175.2302409 89.36362441 177.09111762 89.63012414 178.95278931 89.8908844 C230.65453692 97.21841235 230.65453692 97.21841235 243.56835938 114.078125 C245.21166653 117.83425564 245.52258455 120.01386559 244.88085938 124.078125 C240.19771867 133.9847688 228.59412565 138.26869455 218.81762695 141.82519531 C201.89344121 147.62519264 184.16778462 150.91841836 166.56835938 153.953125 C165.53062378 154.13343262 165.53062378 154.13343262 164.47192383 154.31738281 C160.24078159 155.00028547 156.16239574 155.17782442 151.88085938 155.078125 C151.57148437 156.810625 151.57148437 156.810625 151.25585938 158.578125 C143.89920967 191.12108239 120.50340155 218.40522943 92.88085938 236.078125 C73.80651514 247.69063455 51.99427499 255.13586382 29.88085938 258.078125 C29.08421875 258.19027344 28.28757812 258.30242187 27.46679688 258.41796875 C4.90692232 261.03204945 -18.4800535 258.92188634 -40.11914062 252.078125 C-41.26253906 251.71976563 -42.4059375 251.36140625 -43.58398438 250.9921875 C-52.88721205 247.87367024 -61.47748697 243.66914662 -70.11914062 239.078125 C-71.1478125 238.54574219 -72.17648437 238.01335937 -73.23632812 237.46484375 C-102.20849752 221.64399786 -123.39037613 194.15732673 -133.54150391 163.08056641 C-134.30276168 160.44158236 -134.76754241 157.79975564 -135.11914062 155.078125 C-135.83674561 155.03131592 -136.55435059 154.98450684 -137.29370117 154.9362793 C-144.94697915 154.37598201 -152.39371602 153.3124259 -159.93164062 151.890625 C-161.09727539 151.67140381 -162.26291016 151.45218262 -163.46386719 151.22631836 C-212.21920894 141.80421288 -212.21920894 141.80421288 -224.71679688 128.359375 C-226.75747768 125.3156477 -227.37635731 122.5318834 -227.18164062 118.953125 C-226.03247164 113.15149518 -221.78949818 110.45959363 -217.24414062 107.140625 C-200.187985 96.30429922 -178.46946448 92.22210383 -158.69335938 89.640625 C-156.88451884 89.38716397 -155.0758432 89.13252337 -153.26733398 88.87670898 C-149.72383019 88.37588591 -146.18591899 87.97263217 -142.62524414 87.61743164 C-134.36181061 86.78052783 -134.36181061 86.78052783 -127.61383057 82.44210815 C-125.06147102 78.56691136 -123.47923354 74.43549982 -121.93869019 70.08206177 C-110.96898608 43.25928686 -79.3321995 23.11786673 -54.11914062 12.078125 C-40.81501716 6.54917491 -27.34169958 3.22480545 -13.11914062 1.078125 C-11.62060547 0.84996094 -11.62060547 0.84996094 -10.09179688 0.6171875 C-6.72819793 0.22397056 -3.38211789 0.12468637 0 0 Z " fill="#EFE4B0" transform="translate(445.119140625,512.921875)"/>
<path d="M0 0 C1.15202911 0.00017939 1.15202911 0.00017939 2.32733154 0.0003624 C26.16592442 0.00504729 49.92614509 0.31274192 73.71221924 2.02929688 C76.00545534 2.19233119 78.29918538 2.34536929 80.59326172 2.49609375 C112.74155359 4.62393224 144.69404475 8.2049046 176.4375 13.75 C177.25240906 13.89175659 178.06731812 14.03351318 178.90692139 14.17956543 C190.01713783 16.12920223 200.98407089 18.49533398 211.9375 21.1875 C222.22422926 55.20776141 222.85180098 95.38095572 210.9375 129.1875 C208.35537683 133.06068475 207.01521377 132.90175476 202.52734375 133.80078125 C201.86564178 133.93563934 201.20393982 134.07049744 200.52218628 134.20944214 C198.3091119 134.6544925 196.09268317 135.07855169 193.875 135.5 C192.71863541 135.7248558 192.71863541 135.7248558 191.53890991 135.95425415 C148.80240323 144.24747283 105.40826216 149.06754937 61.9375 151.1875 C61.1071524 151.22986786 60.27680481 151.27223572 59.42129517 151.31588745 C40.4480775 152.26369322 21.49134141 152.38797614 2.5 152.375 C1.33316492 152.37482061 1.33316492 152.37482061 0.14275742 152.3746376 C-25.30633978 152.3696994 -50.66772827 151.99191024 -76.0625 150.1875 C-77.2122934 150.1075882 -77.2122934 150.1075882 -78.38531494 150.02606201 C-107.00679818 148.02886708 -135.84478294 145.49339552 -164.0625 140.1875 C-179.1008471 98.23051159 -179.50294496 55.97152419 -167.0625 13.1875 C-161.73758115 11.77765655 -156.49019787 10.70851233 -151.0234375 10.00390625 C-150.27306213 9.90382263 -149.52268677 9.80373901 -148.74957275 9.70062256 C-146.31293293 9.37796135 -143.87537498 9.06318412 -141.4375 8.75 C-140.59548035 8.64078217 -139.75346069 8.53156433 -138.88592529 8.41903687 C-112.34692426 4.98497251 -85.79086954 2.50921899 -59.0625 1.1875 C-58.21239349 1.14406464 -57.36228699 1.10062927 -56.48641968 1.05587769 C-37.65801725 0.11710157 -18.84634808 -0.01304966 0 0 Z " fill="#FF7F27" transform="translate(680.0625,250.8125)"/>
<path d="M0 0 C1.02738281 0.74378906 2.05476563 1.48757812 3.11328125 2.25390625 C33.08037325 24.4639488 63.1810508 59.64098685 72 97 C71.67 97.99 71.34 98.98 71 100 C70.15969238 99.81937012 69.31938477 99.63874023 68.45361328 99.45263672 C-16.64538524 81.34865679 -104.71596051 76.66702488 -213 82 C-213.90935303 82.06552063 -214.81870605 82.13104126 -215.75561523 82.19854736 C-239.4393808 83.91111678 -263.00935185 86.12763107 -286.52807617 89.42504883 C-287.27790771 89.53007217 -288.02773926 89.63509552 -288.80029297 89.74330139 C-290.80196201 90.02607239 -292.8027534 90.31503698 -294.8034668 90.60449219 C-298 91 -298 91 -302 91 C-299.9864638 83.01685592 -296.77131115 76.0142387 -292.9375 68.75 C-292.35967773 67.64897949 -291.78185547 66.54795898 -291.18652344 65.41357422 C-286.72699665 57.06211916 -281.88307551 49.40353252 -276 42 C-275.29875 41.09121094 -274.5975 40.18242187 -273.875 39.24609375 C-265.35114772 28.48159648 -255.85564103 17.47808977 -245 9 C-244.44618652 8.56623047 -243.89237305 8.13246094 -243.32177734 7.68554688 C-234.54810664 0.85382996 -225.66734733 -5.48221011 -216 -11 C-215.39704102 -11.35126953 -214.79408203 -11.70253906 -214.17285156 -12.06445312 C-148.9541088 -49.77891222 -60.41122291 -45.40817151 0 0 Z " fill="#FF7F27" transform="translate(818,167)"/>
<path d="M0 0 C0.79148437 0.64839844 1.58296875 1.29679687 2.3984375 1.96484375 C6.38390539 5.33187697 9.86688093 8.93958801 13.23046875 12.92578125 C14.40823685 14.30634386 15.61980245 15.65878373 16.86328125 16.98046875 C29.66057544 30.64972286 47 55.51885858 47 75 C39.39813557 74.51790425 31.82234549 73.91396071 24.24609375 73.1328125 C23.47201172 73.05306183 22.69792969 72.97331116 21.90039062 72.8911438 C21.10294434 72.80895599 20.30549805 72.72676819 19.48388672 72.64208984 C-4.64110197 70.15740522 -28.78270462 68.30129096 -53 67 C-53.98887207 66.94672546 -54.97774414 66.89345093 -55.99658203 66.83856201 C-145.5964924 62.10282586 -235.70747571 64.49377934 -325 73 C-322.14682771 51.1737997 -307.79726885 29.92808879 -293.0078125 14.18359375 C-290.93697176 11.98596772 -290.93697176 11.98596772 -288.96875 9.4296875 C-286.03343303 5.80713362 -282.5718222 2.97755022 -279 0 C-278.24589844 -0.63035156 -277.49179687 -1.26070313 -276.71484375 -1.91015625 C-265.23481748 -11.29951107 -253.09184466 -19.09232502 -240 -26 C-238.87722656 -26.59554688 -237.75445313 -27.19109375 -236.59765625 -27.8046875 C-216.67876583 -37.70709121 -194.89341375 -43.54516109 -173 -47 C-172.18724609 -47.12987305 -171.37449219 -47.25974609 -170.53710938 -47.39355469 C-110.06693638 -56.54870811 -46.91284424 -38.73037141 0 0 Z " fill="#B5E61D" transform="translate(1276,422)"/>
<path d="M0 0 C-7.49277554 17.45592123 -15.43642438 33.85947546 -27 49 C-27.63292969 49.845625 -28.26585937 50.69125 -28.91796875 51.5625 C-41.66250023 68.0841954 -56.69641806 82.38563981 -74 94 C-74.6094043 94.4125 -75.21880859 94.825 -75.84667969 95.25 C-119.06583319 124.22879334 -172.96087176 134.35549238 -224 125 C-254.54947631 118.94023419 -282.18307463 106.82014093 -307 88 C-308.35931641 86.98873047 -308.35931641 86.98873047 -309.74609375 85.95703125 C-314.98209244 81.92471042 -319.83776922 77.4824167 -324.6875 73 C-325.3057666 72.43039551 -325.9240332 71.86079102 -326.56103516 71.27392578 C-342.94508256 55.9152507 -355.39960961 37.10510515 -365.625 17.25 C-365.98053955 16.56993896 -366.3360791 15.88987793 -366.70239258 15.18920898 C-369.11867614 10.35602843 -369.11867614 10.35602843 -368 7 C-366.51681274 7.20363159 -366.51681274 7.20363159 -365.00366211 7.41137695 C-273.88411666 19.87097894 -181.43110249 22.14127562 -10.16430664 0.38476562 C-9.2489917 0.18689453 -8.33367676 -0.01097656 -7.390625 -0.21484375 C-6.60719727 -0.39136475 -5.82376953 -0.56788574 -5.01660156 -0.74975586 C-3 -1 -3 -1 0 0 Z " fill="#FF7F27" transform="translate(888,389)"/>
<path d="M0 0 C-1.85268555 6.76208011 -4.14763587 13.05901287 -7.1875 19.375 C-7.58259766 20.19935547 -7.97769531 21.02371094 -8.38476562 21.87304688 C-27.99267853 61.93593453 -67.77491556 90.50097873 -109.20800781 104.84619141 C-167.98073624 124.30815481 -231.55238735 120.84841964 -287.0546875 92.98828125 C-306.36936445 83.05905962 -324.92759023 69.63685802 -339 53 C-340.16652758 51.70820772 -341.33319484 50.41654157 -342.5 49.125 C-351.46255201 38.82505159 -368 17.64362387 -368 3 C-361.5441967 2.91595175 -355.23593 3.22404908 -348.80859375 3.8046875 C-346.81195928 3.97714199 -344.81529454 4.14924643 -342.81860352 4.32104492 C-341.77858185 4.41163177 -340.73856018 4.50221863 -339.66702271 4.59555054 C-322.81203185 6.05400696 -305.9610395 7.36189275 -289.0625 8.1875 C-288.33698944 8.22397644 -287.61147888 8.26045288 -286.86398315 8.29803467 C-281.24416873 8.57610906 -275.62298722 8.79697338 -270 9 C-268.84459717 9.04236786 -267.68919434 9.08473572 -266.4987793 9.12838745 C-242.95640449 9.96771746 -219.43115145 10.2015099 -195.875 10.1875 C-194.97774956 10.18738041 -194.08049911 10.18726082 -193.15605927 10.1871376 C-131.32800683 10.17676224 -69.13076403 8.50509993 -7.75317383 0.44580078 C-4 0 -4 0 0 0 Z " fill="#B5E61D" transform="translate(1321,566)"/>
<path d="M0 0 C1.35189548 0.00040031 1.35189548 0.00040031 2.73110199 0.00080872 C68.35452659 0.02509027 133.72894864 2.96749819 198.875 11.1875 C204.23070178 29.35474727 203.88988671 52.14283987 197.875 70.1875 C164.25887867 74.91435147 130.39426928 77.62036849 96.5 79.375 C95.80059296 79.41183899 95.10118591 79.44867798 94.38058472 79.4866333 C63.83678878 81.05871039 33.26527607 81.39553737 2.6875 81.375 C1.7898719 81.37473312 0.8922438 81.37446625 -0.03258514 81.37419128 C-51.2019718 81.35519603 -102.11567745 79.41943439 -153.125 75.1875 C-154.57105621 75.07172607 -154.57105621 75.07172607 -156.04632568 74.95361328 C-158.72392642 74.73449948 -161.39898106 74.4961103 -164.07421875 74.25 C-164.85497269 74.18748047 -165.63572662 74.12496094 -166.44013977 74.06054688 C-169.38382111 73.76991784 -171.62209302 73.54321315 -174.07104492 71.81103516 C-175.75044169 69.22405612 -176.15372343 66.57009282 -176.75 63.5625 C-176.98976563 62.39460937 -177.22953125 61.22671875 -177.4765625 60.0234375 C-178.74476597 52.52117361 -179.31923385 45.16950478 -179.3125 37.5625 C-179.31241943 36.70019775 -179.31233887 35.83789551 -179.31225586 34.94946289 C-179.23698364 26.3787298 -178.85216167 17.36898501 -176.125 9.1875 C-164.10308083 7.00670559 -151.98004622 6.13684167 -139.8125 5.1875 C-138.71463165 5.10067963 -137.61676331 5.01385925 -136.48562622 4.92440796 C-121.68747017 3.75940656 -106.88845307 2.73481124 -92.0625 2 C-91.33412933 1.96334229 -90.60575867 1.92668457 -89.85531616 1.88891602 C-84.2799858 1.61397126 -78.70327631 1.39318503 -73.125 1.1875 C-72.00411987 1.14513214 -70.88323975 1.10276428 -69.72839355 1.05911255 C-46.48443566 0.20213526 -23.25835281 -0.01553411 0 0 Z " fill="#B5E61D" transform="translate(1125.125,490.8125)"/>
<path d="M0 0 C0.80344849 0.05327454 1.60689697 0.10654907 2.43469238 0.16143799 C121.04878282 8.09415192 121.04878282 8.09415192 150 31 C152.18038095 34.27057143 152.63246755 35.20519469 152 39 C134.29470506 62.01688342 87.07942003 63.92318005 60.55322266 67.42529297 C34.81679785 70.72630414 8.92004995 72.86518573 -17 74 C-17.9505426 74.04236786 -18.90108521 74.08473572 -19.88043213 74.12838745 C-39.38150979 74.97404074 -58.85981971 75.20144395 -78.375 75.1875 C-79.49481325 75.18732061 -79.49481325 75.18732061 -80.63724899 75.1871376 C-107.13073839 75.18179287 -133.55391041 74.70968884 -160 73 C-160.79466675 72.94908203 -161.5893335 72.89816406 -162.40808105 72.84570312 C-280.44904699 65.16784685 -280.44904699 65.16784685 -308 42 C-310.16662892 38.75005662 -310.501396 37.76911476 -310 34 C-298.44753779 17.21437115 -266.68246858 13.91645608 -248.5 10.4375 C-218.60491709 4.99568794 -188.30410877 1.95490423 -158 0 C-157.21455811 -0.05220703 -156.42911621 -0.10441406 -155.61987305 -0.15820312 C-104.01994304 -3.57185852 -51.59246984 -3.47108111 0 0 Z " fill="#EFE4B0" transform="translate(533,597)"/>
<path d="M0 0 C44.72524516 -1.4580357 85.24186084 12.91918031 118.19726562 43.20703125 C125.98022487 50.74629706 132.16312569 59.2024981 137.82617188 68.4140625 C138.16052246 68.95232666 138.49487305 69.49059082 138.83935547 70.04516602 C139.88085938 72.078125 139.88085938 72.078125 140.78564453 75.03100586 C142.88356501 81.03771407 142.88356501 81.03771407 147.67254639 84.94018555 C152.42483492 86.414952 157.32758286 87.00906921 162.25811768 87.57449341 C165.97417818 88.00203146 169.66948551 88.54881632 173.37020874 89.09141541 C175.2302409 89.36362441 177.09111762 89.63012414 178.95278931 89.8908844 C230.65453692 97.21841235 230.65453692 97.21841235 243.56835938 114.078125 C245.21166653 117.83425564 245.52258455 120.01386559 244.88085938 124.078125 C240.19756659 133.9850905 228.59655295 138.26529926 218.82128906 141.82470703 C171.95021726 157.87363322 119.07164419 160.91769812 69.88085938 163.078125 C68.93204895 163.12049286 67.98323853 163.16286072 67.00567627 163.20651245 C47.46130371 164.05499399 27.93939711 164.27956601 8.38085938 164.265625 C7.25825714 164.26544561 7.25825714 164.26544561 6.11297607 164.2652626 C-19.67484038 164.26007189 -45.38088971 163.78378671 -71.11914062 162.078125 C-71.90951721 162.02720703 -72.6998938 161.97628906 -73.51422119 161.92382812 C-201.18308638 153.67681417 -201.18308638 153.67681417 -224.71679688 128.359375 C-226.75747768 125.3156477 -227.37635731 122.5318834 -227.18164062 118.953125 C-226.03247164 113.15149518 -221.78949818 110.45959363 -217.24414062 107.140625 C-200.187985 96.30429922 -178.46946448 92.22210383 -158.69335938 89.640625 C-156.88451884 89.38716397 -155.0758432 89.13252337 -153.26733398 88.87670898 C-149.72383019 88.37588591 -146.18591899 87.97263217 -142.62524414 87.61743164 C-134.36181061 86.78052783 -134.36181061 86.78052783 -127.61383057 82.44210815 C-125.06147102 78.56691136 -123.47923354 74.43549982 -121.93869019 70.08206177 C-110.96898608 43.25928686 -79.3321995 23.11786673 -54.11914062 12.078125 C-40.81501716 6.54917491 -27.34169958 3.22480545 -13.11914062 1.078125 C-11.62060547 0.84996094 -11.62060547 0.84996094 -10.09179688 0.6171875 C-6.72819793 0.22397056 -3.38211789 0.12468637 0 0 Z M-70.11914062 84.078125 C-71.30310425 84.15450195 -71.30310425 84.15450195 -72.51098633 84.23242188 C-151.45786031 86.35256952 -151.45786031 86.35256952 -220.74804688 116.0859375 C-222.49266762 118.62085653 -222.53505653 120.05906485 -222.11914062 123.078125 C-203.44929854 147.34891971 -152.72044811 148.45077529 -124.76850891 152.11378479 C-106.54432453 154.45760136 -88.265827 156.02115162 -69.93164062 157.203125 C-68.75907715 157.27885742 -67.58651367 157.35458984 -66.37841797 157.43261719 C-41.84657329 158.89730385 -17.3121923 159.28317772 7.25585938 159.265625 C8.00254883 159.26550541 8.74923828 159.26538582 9.51855469 159.2652626 C36.01324055 159.25991894 62.43277845 158.76817322 88.88085938 157.078125 C89.69012878 157.02720703 90.49939819 156.97628906 91.33319092 156.92382812 C168.78163538 154.42317168 168.78163538 154.42317168 237.88085938 126.078125 C240.06124033 122.80755357 240.51332693 121.87293031 239.88085938 118.078125 C221.95710107 94.7772392 174.22845823 93.20787685 147.41796875 89.65283203 C121.68236307 86.33869566 95.79728834 84.26679361 69.88085938 83.078125 C68.99988586 83.03575714 68.11891235 82.99338928 67.21124268 82.94973755 C48.14110806 82.04833885 29.09233789 81.87731158 10.00585938 81.890625 C8.86127195 81.89080439 8.86127195 81.89080439 7.69356155 81.8909874 C-18.28963608 81.89612234 -44.18527875 82.35434384 -70.11914062 84.078125 Z " fill="#EFE4B0" transform="translate(445.119140625,512.921875)"/>
<path d="M0 0 C1.35189548 0.00040031 1.35189548 0.00040031 2.73110199 0.00080872 C249.09634742 0.09196717 249.09634742 0.09196717 291.5625 37.0625 C294.58538146 41.14747494 294.95537611 43.12380529 294.875 48.1875 C291.98662949 55.49337834 284.54582488 59.37586067 277.7890625 62.58984375 C223.06181043 85.86117395 154.38871353 86.41973399 95.9375 89.375 C94.84393188 89.4305304 94.84393188 89.4305304 93.72827148 89.48718262 C88.11205404 89.7647525 82.49436903 89.98460402 76.875 90.1875 C75.71959717 90.22986786 74.56419434 90.27223572 73.3737793 90.31588745 C49.83140449 91.15521746 26.30615145 91.3890099 2.75 91.375 C1.85274956 91.37488041 0.95549911 91.37476082 0.03105927 91.3746376 C-201.88848523 91.34075351 -201.88848523 91.34075351 -287.27734375 55.43359375 C-289.97058605 52.60093656 -291.06313655 50.38340093 -292.25 46.625 C-292.09492276 42.36037597 -291.06542866 40.13544893 -288.125 37.1875 C-246.12015084 -0.1501437 -144.51849066 4.63508423 -92.0625 2 C-91.33159149 1.96307037 -90.60068298 1.92614075 -89.84762573 1.88809204 C-84.27486913 1.61340272 -78.70069381 1.3930898 -73.125 1.1875 C-72.00411987 1.14513214 -70.88323975 1.10276428 -69.72839355 1.05911255 C-46.48443566 0.20213526 -23.25835281 -0.01553411 0 0 Z M-163.51953125 12.25 C-164.33902756 12.32927734 -165.15852386 12.40855469 -166.00285339 12.49023438 C-169.46083045 12.84249591 -172.76879444 13.28941581 -176.125 14.1875 C-176.44419939 15.49838682 -176.75485947 16.81135248 -177.0625 18.125 C-177.23652344 18.85589844 -177.41054688 19.58679688 -177.58984375 20.33984375 C-180.74394247 37.12333258 -182.12209279 61.59011673 -174.125 77.1875 C-171.02043749 78.73978125 -167.65378384 78.73477725 -164.23828125 79.0546875 C-163.4143689 79.13399002 -162.59045654 79.21329254 -161.74157715 79.29499817 C-158.97412668 79.55748667 -156.20598801 79.81119839 -153.4375 80.0625 C-152.47838715 80.1502066 -151.51927429 80.23791321 -150.53109741 80.32827759 C-133.68518166 81.85113772 -116.82643803 82.95795761 -99.9375 83.875 C-98.8407193 83.93548523 -97.7439386 83.99597046 -96.61392212 84.05828857 C-64.45045269 85.81046387 -32.32947329 86.39655264 -0.125 86.375 C0.77440434 86.37473312 1.67380867 86.37446625 2.60046768 86.37419128 C67.33287527 86.3501948 133.91424288 86.23285943 197.875 75.1875 C198.35862696 73.02182456 198.83667317 70.85490259 199.3125 68.6875 C199.71275391 66.87765625 199.71275391 66.87765625 200.12109375 65.03125 C201.60283371 57.47667943 202.06851129 50.24292866 202.0625 42.5625 C202.06241943 41.60061768 202.06233887 40.63873535 202.06225586 39.64770508 C202.62515931 27.12802619 202.62515931 27.12802619 198.875 16.1875 C196.30111314 15.78412101 193.74246916 15.44166284 191.15625 15.13671875 C189.92795723 14.98857224 189.92795723 14.98857224 188.67485046 14.83743286 C185.90909781 14.50865739 183.14234192 14.19011266 180.375 13.875 C179.40930084 13.76489594 178.44360168 13.65479187 177.44863892 13.54135132 C74.73470031 1.9793029 -29.90400467 2.32795932 -163.51953125 12.25 Z " fill="#C8BFE7" transform="translate(1125.125,485.8125)"/>
<path d="M0 0 C1.0828125 0.57363281 2.165625 1.14726562 3.28125 1.73828125 C15.06418832 8.20997086 26.87273949 17.70104945 31 31 C32.09266484 39.09381365 30.29826414 45.49692953 25.4921875 52.05859375 C23.74678521 54.14089927 21.91526284 56.07319943 20 58 C19.39929688 58.63550781 18.79859375 59.27101563 18.1796875 59.92578125 C-34.30532133 111.27876047 -152.79185714 112.38256282 -221 116 C-222.33914963 116.07208679 -222.33914963 116.07208679 -223.70535278 116.14562988 C-241.77601091 117.08854733 -259.84671379 117.24512411 -277.9375 117.25 C-278.69382973 117.25044186 -279.45015945 117.25088371 -280.22940826 117.25133896 C-352.38679932 117.27330031 -425.81189489 112.78042717 -496 95 C-497.02013184 94.7436377 -498.04026367 94.48727539 -499.09130859 94.22314453 C-569.69073327 76.27255467 -569.69073327 76.27255467 -586.9375 50.0546875 C-590.40057008 43.78588935 -592.58944213 38.14160301 -591 31 C-586.05015918 16.57255699 -575.04503836 7.96837868 -562 1 C-561.30664551 0.62407715 -560.61329102 0.2481543 -559.89892578 -0.13916016 C-499.2243869 -32.4680366 -423.36655002 -38.14611085 -356 -43 C-355.16283447 -43.06165344 -354.32566895 -43.12330688 -353.46313477 -43.18682861 C-267.99274183 -49.44070719 -179.63081002 -45.69021258 0 0 Z M-353.75909424 -38.15820312 C-356.04071498 -37.99712561 -358.32275327 -37.843631 -360.60498047 -37.69140625 C-398.41244878 -35.13750319 -435.82256145 -30.33471197 -473 -23 C-474.27037109 -22.75137207 -475.54074219 -22.50274414 -476.84960938 -22.24658203 C-511.69249282 -15.30753321 -560.11510278 -5.13715338 -583 25 C-585.9157466 29.6280139 -587.00427453 34.59836806 -586 40 C-581.24444014 54.19775844 -568.61672973 62.30834208 -556 69 C-491.26510871 101.15606641 -411.11466669 107.46953143 -340 111 C-338.72993103 111.06515305 -338.72993103 111.06515305 -337.4342041 111.13162231 C-318.45707224 112.08106615 -299.49533536 112.20046435 -280.5 112.1875 C-279.33188089 112.18732061 -279.33188089 112.18732061 -278.14016342 112.1871376 C-253.0433702 112.18227244 -228.04095632 111.81461177 -203 110 C-201.46158991 109.89174485 -199.92317844 109.7835094 -198.38476562 109.67529297 C-80.05619923 103.49994738 -80.05619923 103.49994738 20 51 C23.95606736 45.82471361 26.46600317 40.95456666 26.33203125 34.3046875 C25.03971658 25.33450329 18.74392193 18.54253464 12 13 C-44.66809982 -28.20580401 -132.24259631 -32.91635073 -200.3125 -37.6875 C-201.17591003 -37.74834778 -202.03932007 -37.80919556 -202.92889404 -37.87188721 C-228.26690287 -39.63280886 -253.54689874 -40.20505519 -278.9375 -40.1875 C-280.09010881 -40.18732061 -280.09010881 -40.18732061 -281.26600266 -40.1871376 C-305.47097384 -40.18238174 -329.60553302 -39.87376585 -353.75909424 -38.15820312 Z " fill="#00A2E8" transform="translate(961,291)"/>
<path d="M0 0 C0.7649176 0.00011959 1.52983521 0.00023918 2.31793213 0.0003624 C26.81307688 0.00519264 51.23695418 0.34864047 75.6829834 2.02929688 C78.04385302 2.19049423 80.40513244 2.34395057 82.76660156 2.49609375 C204.55322067 10.44235149 204.55322067 10.44235149 233 35.1875 C235.26703926 38.0799294 235.95886083 39.90981062 236.5 43.5625 C235.84749833 48.29313709 234.4429047 50.9983552 231 54.1875 C188.19891879 85.33237898 112.15407601 83.94084667 61 86.1875 C60.05118958 86.22986786 59.10237915 86.27223572 58.12481689 86.31588745 C38.58044434 87.16436899 19.05853773 87.38894101 -0.5 87.375 C-1.62260223 87.37482061 -1.62260223 87.37482061 -2.7678833 87.3746376 C-28.55569976 87.36944689 -54.26174908 86.89316171 -80 85.1875 C-80.79037659 85.13658203 -81.58075317 85.08566406 -82.39508057 85.03320312 C-210.06394575 76.78618917 -210.06394575 76.78618917 -233.59765625 51.46875 C-235.63833706 48.4250227 -236.25721669 45.6412584 -236.0625 42.0625 C-234.91333102 36.26087018 -230.67035755 33.56896863 -226.125 30.25 C-187.39268676 5.64211217 -126.31800011 5.49306132 -81.8125 2.5 C-80.90952179 2.43906158 -80.00654358 2.37812317 -79.07620239 2.31533813 C-52.72160934 0.56538954 -26.40453502 -0.01837436 0 0 Z M-79 7.1875 C-80.18396362 7.26387695 -80.18396362 7.26387695 -81.3918457 7.34179688 C-160.33871969 9.46194452 -160.33871969 9.46194452 -229.62890625 39.1953125 C-231.37352699 41.73023153 -231.4159159 43.16843985 -231 46.1875 C-212.33015792 70.45829471 -161.60130749 71.56015029 -133.64936829 75.22315979 C-115.4251839 77.56697636 -97.14668637 79.13052662 -78.8125 80.3125 C-77.63993652 80.38823242 -76.46737305 80.46396484 -75.25927734 80.54199219 C-50.72743267 82.00667885 -26.19305168 82.39255272 -1.625 82.375 C-0.87831055 82.37488041 -0.13162109 82.37476082 0.63769531 82.3746376 C27.13238117 82.36929394 53.55191908 81.87754822 80 80.1875 C80.80926941 80.13658203 81.61853882 80.08566406 82.45233154 80.03320312 C159.900776 77.53254668 159.900776 77.53254668 229 49.1875 C231.18038095 45.91692857 231.63246755 44.98230531 231 41.1875 C213.07624169 17.8866142 165.34759885 16.31725185 138.53710938 12.76220703 C112.80150369 9.44807066 86.91642897 7.37616861 61 6.1875 C60.11902649 6.14513214 59.23805298 6.10276428 58.3303833 6.05911255 C39.26024868 5.15771385 20.21147852 4.98668658 1.125 5 C-0.01958742 5.00017939 -0.01958742 5.00017939 -1.18729782 5.0003624 C-27.17049546 5.00549734 -53.06613812 5.46371884 -79 7.1875 Z " fill="#FFC90E" transform="translate(454,589.8125)"/>
<path d="M0 0 C-0.144375 1.06734375 -0.28875 2.1346875 -0.4375 3.234375 C-3.055447 23.7078841 -2.08646196 42.78798467 2 63 C-9.31087272 62.4558343 -20.37934351 61.11845257 -31.5625 59.375 C-32.40539581 59.24472412 -33.24829163 59.11444824 -34.11672974 58.98022461 C-94.92126011 49.5035618 -94.92126011 49.5035618 -109.625 35.5 C-111 33 -111 33 -111.125 30.5 C-107.65059466 22.77909925 -97.76002185 19.71784523 -90.375 16.86425781 C-63.91518222 7.23558234 -28.35393572 -0.54905673 0 0 Z " fill="#FFFFFF" transform="translate(949,500)"/>
<path d="M0 0 C73.32960955 8.00195946 73.32960955 8.00195946 91 27 C91.33 27.33 91.66 27.66 92 28 C92.375 30.25 92.375 30.25 92 33 C76.62705875 52.98482362 37.5183053 55.89902591 14.57421875 59.5546875 C11.33310522 59.95849837 8.26086555 60.0910009 5 60 C5.06928711 59.39486572 5.13857422 58.78973145 5.20996094 58.16625977 C7.39481286 37.96415479 5.3126124 19.55493499 0 0 Z " fill="#FFFFFF" transform="translate(593,603)"/>
<path d="M0 0 C10.30965316 0.50225072 20.2132329 2.12433866 30.3125 4.125 C31.09803253 4.27928467 31.88356506 4.43356934 32.69290161 4.5925293 C81.19448024 14.18080146 81.19448024 14.18080146 90 27 C90.125 29.5 90.125 29.5 89 32 C68.7805572 52.73789005 24.74316867 54.42440112 -2 58 C-1.90912109 57.44876465 -1.81824219 56.8975293 -1.72460938 56.32958984 C1.31812085 37.40614843 1.73252312 19.07587694 0 0 Z " fill="#FFFFFF" transform="translate(1325,503)"/>
<path d="M0 0 C-0.78028539 5.88965412 -1.97536601 11.61074828 -3.28125 17.40234375 C-4.68634342 24.43544723 -5.1655663 31.16341366 -5.125 38.3125 C-5.12306641 39.14048096 -5.12113281 39.96846191 -5.11914062 40.8215332 C-5.0762459 46.91913771 -4.76188426 52.94574116 -4 59 C-29.76025698 56.83777872 -70.2333888 53.17662492 -89 33 C-89.33 32.67 -89.66 32.34 -90 32 C-90.35624477 29.01958601 -90.35258764 27.51230683 -88.62890625 25.0078125 C-69.71833127 7.77738312 -38.06928967 5.11072432 -14 1 C-12.94095459 0.81679199 -11.88190918 0.63358398 -10.79077148 0.44482422 C-7.13276196 -0.13823005 -3.69924545 -0.06378009 0 0 Z " fill="#FFFFFF" transform="translate(313,604)"/>
</svg>
